inDegrees=no
num_controls=7
num_derivatives=13
num_iterations=115
num_multipliers=7
num_parameters=0
num_slacks=7
num_states=26
objective=0.446471
objective_accelerations=0.061448
objective_balance=0.002891
objective_effort=0.021558
objective_height=0.354006
objective_ligament=0.006568
solver_duration=1591.226983
status=Solve_Succeeded
success=true
DataType=double
version=3
OpenSimVersion=4.5
endheader
time	/jointset/ground_pelvis/pelvis_tilt/value	/jointset/ground_pelvis/pelvis_tx/value	/jointset/ground_pelvis/pelvis_ty/value	/jointset/hip_l/hip_flexion_l/value	/jointset/hip_l/hip_adduction_l/value	/jointset/hip_l/hip_rotation_l/value	/jointset/back/lumbar_extension/value	/jointset/patellofemoral_l/patellar_flexion_l/value	/jointset/knee_l/knee_flexion_l/value	/jointset/knee_l/knee_adduction_l/value	/jointset/knee_l/knee_rotation_l/value	/jointset/ankle_l/ankle_angle_l/value	/jointset/subtalar_l/subtalar_angle_l/value	/jointset/ground_pelvis/pelvis_tilt/speed	/jointset/ground_pelvis/pelvis_tx/speed	/jointset/ground_pelvis/pelvis_ty/speed	/jointset/hip_l/hip_flexion_l/speed	/jointset/hip_l/hip_adduction_l/speed	/jointset/hip_l/hip_rotation_l/speed	/jointset/back/lumbar_extension/speed	/jointset/patellofemoral_l/patellar_flexion_l/speed	/jointset/knee_l/knee_flexion_l/speed	/jointset/knee_l/knee_adduction_l/speed	/jointset/knee_l/knee_rotation_l/speed	/jointset/ankle_l/ankle_angle_l/speed	/jointset/subtalar_l/subtalar_angle_l/speed	/forceset/tau_hip_flexion_l	/forceset/tau_hip_adduction_l	/forceset/tau_hip_rotation_l	/forceset/tau_knee_flexion_l	/forceset/tau_ankle_angle_l	/forceset/tau_subtalar_angle_l	/forceset/tau_lumbar_extension	lambda_cid13_p0	lambda_cid13_p1	lambda_cid13_p2	lambda_cid13_p3	lambda_cid13_p4	lambda_cid13_p5	lambda_cid14_p0	/jointset/ground_pelvis/pelvis_tilt/accel	/jointset/ground_pelvis/pelvis_tx/accel	/jointset/ground_pelvis/pelvis_ty/accel	/jointset/hip_l/hip_flexion_l/accel	/jointset/hip_l/hip_adduction_l/accel	/jointset/hip_l/hip_rotation_l/accel	/jointset/back/lumbar_extension/accel	/jointset/patellofemoral_l/patellar_flexion_l/accel	/jointset/knee_l/knee_flexion_l/accel	/jointset/knee_l/knee_adduction_l/accel	/jointset/knee_l/knee_rotation_l/accel	/jointset/ankle_l/ankle_angle_l/accel	/jointset/subtalar_l/subtalar_angle_l/accel	gamma_cid13_p0	gamma_cid13_p1	gamma_cid13_p2	gamma_cid13_p3	gamma_cid13_p4	gamma_cid13_p5	gamma_cid14_p0
1	-0.4278992055825196	-0.03686915563450484	0.5564888958440627	1.750686162780651	-0.4614552310367149	-0.1473810960302054	-0.261794897321717	1.525547496861512	1.525547496861527	0.1745326969676616	-0.1745146318761608	0.3582916766546947	0.0934380190850599	-0.01619473784854211	0.01156601009263064	0.003764368685024573	-0.009445534244958306	-0.003795142735301264	-0.001762559439713301	-8.679737625811445e-06	-0.002689367663971661	-0.002689367663971785	-0.002791714835722508	-3.265096107525519e-05	0.02223193855066297	0.01135088995100703	-0.2716062220715479	0.05069072403613591	-0.06954924423741773	-0.3522799152992585	-0.01834938372228519	0.05526442149734607	0.2457645104238853	-43.65760878348044	-12.42344364252524	-2.848584763319337	14.02522952525646	-647.7975503806817	-37.50669067041459	-0.03033873097847065	0.9341362629693034	-0.02031263162313184	2.135143936869082	-6.414149268887444	0.5044641288850809	-1.396281673121838	-0.01489468150861796	-6.016505266379073	-6.016505266379063	-1.305649808506136	-0.03931837191880613	-1.147308455159318	-0.08450196385163983	2.117480511779251e-09	1.336462062393171e-08	-1.657263699720423e-08	2.016772646889128e-09	-1.540053741508404e-09	2.113673473880472e-08	1.654873093308984e-10
1.01	-0.428015113876083	-0.03675451123377281	0.5566331713012803	1.750271939934218	-0.4614673087857035	-0.1474628757445118	-0.2617949733676055	1.525220321870283	1.525220321870292	0.1744348808046046	-0.1745147170926808	0.3584567261978051	0.09354826712467856	-0.006985460527550088	0.01136762579195803	0.02508765081791797	-0.07339260419685739	0.001377728406709219	-0.01458164718934217	-5.579270800376407e-06	-0.06274259065823533	-0.06274259065823089	-0.01678630314084494	1.328833817165196e-05	0.01077149207481871	0.01069007494559123	-0.2715149854711435	0.05075926077517046	-0.06947813686597655	-0.352190663798742	-0.01835620978035569	0.05525646748528898	0.2457026115767154	-43.64792890279316	-12.42801189369948	-2.840629018757209	13.90887104784936	-647.6772028604951	-37.51973300534454	-0.03034031919858636	0.9145466078150419	-0.01889195607105771	2.130456187388039	-6.38401729637302	0.5234379065006672	-1.222955975744173	0.008054936161063009	-5.999277017342184	-5.999277017341507	-1.448580826947592	0.02617199656211099	-1.146386321784519	-0.05814353024749669	1.064126345484755e-08	-5.732687090781976e-08	-1.25518373248387e-07	-1.971791049598102e-08	-1.671184979921543e-08	-1.464750782590484e-07	1.084184188710431e-08
1.02	-0.4280388847682068	-0.03664170880140384	0.5569905867470045	1.749218440100659	-0.4614277099633438	-0.1476724930662874	-0.2617949899037494	1.524292705408833	1.524292705408838	0.1741966752614202	-0.1745144185330663	0.3585069765605594	0.09365165256197087	0.00223274243947825	0.01119761642001869	0.04639236638635419	-0.1373009316700312	0.006540171534386231	-0.02733008093340206	3.222211342902882e-06	-0.1227776617081862	-0.1227776617081774	-0.03086959086325966	4.410426604581463e-05	-0.0007278975205274052	0.009978369485737701	-0.2714237488707431	0.05082779751420194	-0.06940702949450941	-0.3521014122982238	-0.01836303583842656	0.05524851347322654	0.2456407127295413	-43.64510782500331	-12.43421223204043	-2.829176229587774	13.81071929575318	-647.6493553771103	-37.57533799413977	-0.03035330254671842	0.9359213921765764	-0.01463764587648653	2.131430623977646	-6.406400773142386	0.5023785260183909	-1.382150872008049	-0.01375447844505379	-6.012874877516505	-6.012874877516552	-1.323389691964581	-0.04234304619335243	-1.155097079059701	-0.09468005473918852	2.074324968901288e-08	-1.300791717591175e-07	-2.423799161583937e-07	-4.289617065213818e-08	-3.157806202134964e-08	-3.268943923778277e-07	2.305496058918009e-08
1.03	-0.4279703621118011	-0.03653040684398395	0.5575608684227037	1.747526216158586	-0.4613365754008322	-0.1480091296103573	-0.2617949095551231	1.522764989137665	1.522764989137706	0.1738171207728767	-0.1745139170961127	0.3584419719278781	0.0937475553069583	0.01147903521094194	0.01107328824405783	0.06765213955023915	-0.2011204519194132	0.01168325895320543	-0.03998007001779234	1.25771140976354e-05	-0.1827472328209856	-0.182747232820964	-0.0450547923021359	5.418201798430806e-05	-0.01228548599451602	0.009186119108067823	-0.2710468258098239	0.0508465366846818	-0.06921306171505863	-0.351910747961195	-0.01811382289344282	0.05529711050982711	0.245378730180109	-43.53425940067133	-12.49690059298268	-2.793854484421546	13.58246632885538	-647.2837274378527	-37.73428419606896	-0.03036640723244388	0.9200835486166341	-0.00976678485349472	2.121466903793825	-6.366203903304621	0.5198026222329751	-1.203831762139832	0.008239914650790192	-5.986251403372419	-5.986251403370449	-1.468107707279237	0.02229330000269271	-1.157964635224558	-0.07383117187774461	3.08613400383935e-08	-2.028525012769412e-07	-3.593222326057352e-07	-6.608916118598196e-08	-4.644115604108007e-08	-5.074443952835553e-07	3.52837605578304e-08
1.04	-0.4278091564618843	-0.03642003544460317	0.5583433910782817	1.745196501763525	-0.4611941042096486	-0.1484717478123681	-0.2617947437694664	1.520638126520327	1.520638126520404	0.1732953098024631	-0.1745133928588173	0.3582610164297256	0.09383506881964961	0.02076934114182085	0.01101150481219514	0.08884056236212064	-0.2647990222675353	0.01680749726879693	-0.0525264125215954	2.030961745484889e-05	-0.2426069309422156	-0.2426069309421808	-0.0593208872382161	4.86643345328565e-05	-0.02391807061474959	0.008300523026523817	-0.2706699027489051	0.05086527585516092	-0.06901909393559751	-0.3517200836241655	-0.01786460994845938	0.05534570754642616	0.2451167476306762	-43.43033365872967	-12.56126953440936	-2.754959788830768	13.37217690211614	-647.0116145036573	-37.93651137979009	-0.03039084578527553	0.944724024059628	-0.002128697056858192	2.117160553576948	-6.378210792890399	0.498608705372855	-1.361421555890613	-0.01407895832456274	-5.99090027920262	-5.990900279202609	-1.339568391405361	-0.04546213327133925	-1.170096308308704	-0.113349195514018	4.118377027664397e-08	-2.74567311491897e-07	-4.787232118881716e-07	-8.810198884791385e-08	-6.056603898548584e-08	-6.892475002058611e-07	4.810444057996734e-08
1.05	-0.427554748503815	-0.03630990776110313	0.5593373646081814	1.742230821871409	-0.4610005184072642	-0.1490592993447666	-0.2617945205993638	1.517913347041759	1.517913347040927	0.1726304557769903	-0.1745130239575983	0.3579633047461854	0.09391316346443437	0.03012603058009545	0.01103058849305346	0.1099347097056222	-0.3283013396279044	0.02190607578398804	-0.06496810463191606	2.404480732232896e-05	-0.3023183612244698	-0.3023183612244411	-0.07365452280958529	2.583005981500556e-05	-0.03564126977155446	0.007298556437603868	-0.2700409545152542	0.05086759438056761	-0.0687019476095348	-0.3514321896616026	-0.01735742373872767	0.05542985731978384	0.244684402892835	-43.22092668236969	-12.66942178777578	-2.697807505135172	13.03296948501948	-646.4363086125618	-38.21397116192465	-0.03041537616285728	0.9332312763157526	0.006388153862198621	2.10261166188863	-6.330877405785508	0.5150280804205674	-1.183144257605399	0.007557818262776393	-5.95668618911998	-5.956686189120884	-1.480950777270763	0.01926279094904094	-1.17599304289572	-0.09647090925662952	5.151258613642162e-08	-3.462490429786381e-07	-5.982010243842048e-07	-1.100779364200985e-07	-7.46678528337877e-08	-8.710897645661851e-07	6.094361685377576e-08
1.06	-0.4272063556768426	-0.0361990969901535	0.5605416935789466	1.738631191766055	-0.4607560376885625	-0.1497707880420689	-0.2617942684652383	1.514592368903092	1.514592368901351	0.1718221274683572	-0.1745128920260227	0.3575478488063711	0.09398066833959476	0.03956631492254568	0.01114812230211575	0.1309116505351993	-0.3915890649152864	0.02698648053231319	-0.07731384550234123	2.610242200512993e-05	-0.3618466629620506	-0.3618466629620277	-0.08801574387167761	1.270405939421339e-06	-0.04746692186953318	0.006182569101658206	-0.2694120062816024	0.05086991290597245	-0.06838480128345713	-0.3511442956990387	-0.01685023752899678	0.05551400709313786	0.2442520581549946	-43.01856406822122	-12.77920035499653	-2.637128559450792	12.71155059129362	-645.956308434423	-38.53511012753419	-0.03050129527635096	0.9614430048947613	0.01756132858392949	2.093719250792046	-6.335292378292961	0.4949739519996638	-1.342231307911523	-0.01441447336150424	-5.954274570267938	-5.954274570267877	-1.345085489549978	-0.04580720910288337	-1.19058689654348	-0.1361533449191631	6.133209831790851e-08	-4.123420451928544e-07	-7.108749688633533e-07	-1.305120955106048e-07	-8.669179355568969e-08	-1.037346519148973e-06	7.30357192125566e-08
1.07	-0.4267630558151436	-0.03608657182057791	0.5619551236119869	1.734399886649769	-0.4604608934689187	-0.1506053058548263	-0.261794020330592	1.510677153539656	1.510677153538868	0.1708701120607741	-0.1745130731853862	0.3570135453426923	0.09403630588239861	0.04911446865429007	0.01137802071005926	0.1517467012721775	-0.4546225948303316	0.03203842543425439	-0.08957182957791092	2.30602002288555e-05	-0.4211529999487833	-0.4211529999487778	-0.102387013207734	-3.455420575254045e-05	-0.0594171039995381	0.004919601041891306	-0.2685670245146015	0.05085552652970068	-0.06795034507238371	-0.3506793016898292	-0.01621211351972828	0.05564692767494221	0.2436697377858764	-42.75047159523053	-12.93349280256454	-2.555848039564803	12.30803109827701	-645.1552706810143	-38.93881844894234	-0.03188789842402948	0.9546548597614002	0.02884000078792393	2.074229875533853	-6.279947815203466	0.5098286062544028	-1.164855696468916	0.006681257336948715	-5.912318984464688	-5.912318984467345	-1.48309766912332	0.01776540573963451	-1.200748682451789	-0.1249945032938707	7.11245198782097e-08	-4.781377745734256e-07	-8.231870054692634e-07	-1.508642445754899e-07	-9.860520911129378e-08	-1.202774257254233e-06	8.508808359713383e-08
